<svg width="128" height="20" viewBox="0 0 128 20" fill="none" xmlns="http://www.w3.org/2000/svg">
<path d="M5.87158 16.1802L9.41162 1.22656H11.3892L11.8408 3.7168L8.06885 19H5.94482L5.87158 16.1802ZM4.05273 1.22656L6.98242 16.1802L6.73828 19H4.37012L0.427246 1.22656H4.05273ZM14.9536 16.1191L17.8467 1.22656H21.4722L17.5415 19H15.1733L14.9536 16.1191ZM12.5 1.22656L16.0645 16.2412L15.9668 19H13.8428L10.0464 3.70459L10.5347 1.22656H12.5ZM28.9307 19.2441C27.9053 19.2441 26.9857 19.0814 26.1719 18.7559C25.3581 18.4222 24.6663 17.9624 24.0967 17.3765C23.5352 16.7905 23.1038 16.111 22.8027 15.3379C22.5016 14.5566 22.3511 13.7266 22.3511 12.8477V12.3594C22.3511 11.3584 22.4935 10.4429 22.7783 9.61279C23.0632 8.78271 23.4701 8.0625 23.999 7.45215C24.5361 6.8418 25.1872 6.37386 25.9521 6.04834C26.7171 5.71468 27.5798 5.54785 28.54 5.54785C29.4759 5.54785 30.306 5.70247 31.0303 6.01172C31.7546 6.32096 32.3608 6.76042 32.8491 7.33008C33.3455 7.89974 33.7199 8.58333 33.9722 9.38086C34.2244 10.1702 34.3506 11.0492 34.3506 12.0176V13.4824H23.8525V11.1387H30.896V10.8701C30.896 10.3818 30.8065 9.94645 30.6274 9.56396C30.4565 9.17334 30.1961 8.8641 29.8462 8.63623C29.4963 8.40837 29.0487 8.29443 28.5034 8.29443C28.0396 8.29443 27.6408 8.39616 27.3071 8.59961C26.9735 8.80306 26.7008 9.08789 26.4893 9.4541C26.2858 9.82031 26.1312 10.2516 26.0254 10.748C25.9277 11.2363 25.8789 11.7734 25.8789 12.3594V12.8477C25.8789 13.3766 25.9521 13.8649 26.0986 14.3125C26.2533 14.7601 26.4689 15.1466 26.7456 15.4722C27.0304 15.7977 27.3722 16.05 27.771 16.229C28.1779 16.408 28.6377 16.4976 29.1504 16.4976C29.7852 16.4976 30.3752 16.3755 30.9204 16.1313C31.4738 15.8791 31.9499 15.5007 32.3486 14.9961L34.0576 16.8516C33.7809 17.2503 33.4025 17.6328 32.9224 17.999C32.4504 18.3652 31.8807 18.6663 31.2134 18.9023C30.5461 19.1302 29.7852 19.2441 28.9307 19.2441ZM43.4814 16.0215V10.1377C43.4814 9.71452 43.4123 9.35238 43.2739 9.05127C43.1356 8.74202 42.9199 8.50195 42.627 8.33105C42.3421 8.16016 41.9718 8.07471 41.5161 8.07471C41.1255 8.07471 40.7878 8.14388 40.5029 8.28223C40.2181 8.41243 39.9984 8.60368 39.8438 8.85596C39.6891 9.1001 39.6118 9.389 39.6118 9.72266H36.0962C36.0962 9.16113 36.2264 8.62809 36.4868 8.12354C36.7472 7.61898 37.1257 7.17546 37.6221 6.79297C38.1185 6.40234 38.7085 6.09717 39.3921 5.87744C40.0838 5.65771 40.8569 5.54785 41.7114 5.54785C42.7368 5.54785 43.6483 5.71875 44.4458 6.06055C45.2433 6.40234 45.87 6.91504 46.3257 7.59863C46.7896 8.28223 47.0215 9.13672 47.0215 10.1621V15.814C47.0215 16.5382 47.0662 17.1323 47.1558 17.5962C47.2453 18.0519 47.3755 18.4507 47.5464 18.7925V19H43.9941C43.8232 18.6419 43.693 18.1943 43.6035 17.6572C43.5221 17.112 43.4814 16.5667 43.4814 16.0215ZM43.9453 10.9556L43.9697 12.9453H42.0044C41.5405 12.9453 41.1377 12.9982 40.7959 13.104C40.4541 13.2098 40.1733 13.3604 39.9536 13.5557C39.7339 13.7428 39.5711 13.9626 39.4653 14.2148C39.3677 14.4671 39.3188 14.7438 39.3188 15.0449C39.3188 15.346 39.388 15.6187 39.5264 15.8628C39.6647 16.0988 39.8641 16.286 40.1245 16.4243C40.3849 16.5545 40.6901 16.6196 41.04 16.6196C41.569 16.6196 42.0288 16.5138 42.4194 16.3022C42.8101 16.0907 43.1112 15.8302 43.3228 15.521C43.5425 15.2118 43.6564 14.9188 43.6646 14.6421L44.5923 16.1313C44.4621 16.465 44.283 16.8109 44.0552 17.1689C43.8354 17.527 43.5547 17.8647 43.2129 18.1821C42.8711 18.4914 42.4601 18.7477 41.98 18.9512C41.4998 19.1465 40.9302 19.2441 40.271 19.2441C39.4328 19.2441 38.6719 19.0773 37.9883 18.7437C37.3128 18.4019 36.7757 17.9339 36.377 17.3398C35.9863 16.7376 35.791 16.054 35.791 15.2891C35.791 14.5973 35.9212 13.9829 36.1816 13.4458C36.4421 12.9087 36.8245 12.457 37.3291 12.0908C37.8418 11.7165 38.4806 11.4357 39.2456 11.2485C40.0106 11.0532 40.8976 10.9556 41.9067 10.9556H43.9453ZM56.2012 5.79199V8.28223H48.5107V5.79199H56.2012ZM50.415 2.53271H53.9307V15.0205C53.9307 15.403 53.9795 15.696 54.0771 15.8994C54.1829 16.1029 54.3376 16.2453 54.541 16.3267C54.7445 16.3999 55.0008 16.4365 55.3101 16.4365C55.5298 16.4365 55.7251 16.4284 55.896 16.4121C56.075 16.3877 56.2256 16.3633 56.3477 16.3389L56.3599 18.9268C56.0588 19.0244 55.7332 19.1017 55.3833 19.1587C55.0334 19.2157 54.6468 19.2441 54.2236 19.2441C53.4505 19.2441 52.7751 19.118 52.1973 18.8657C51.6276 18.6053 51.1882 18.1903 50.8789 17.6206C50.5697 17.0509 50.415 16.3022 50.415 15.3745V2.53271ZM61.6333 0.25V19H58.1177V0.25H61.6333ZM61.1328 11.9321H60.1685C60.1766 11.0125 60.2987 10.1662 60.5347 9.39307C60.7707 8.61182 61.1084 7.93636 61.5479 7.3667C61.9873 6.7889 62.5122 6.34131 63.1226 6.02393C63.741 5.70654 64.4246 5.54785 65.1733 5.54785C65.8244 5.54785 66.4144 5.64144 66.9434 5.82861C67.4805 6.00765 67.9403 6.30062 68.3228 6.70752C68.7134 7.10628 69.0145 7.63118 69.2261 8.28223C69.4377 8.93327 69.5435 9.72266 69.5435 10.6504V19H66.0034V10.626C66.0034 10.04 65.918 9.58024 65.7471 9.24658C65.5843 8.90479 65.3442 8.66471 65.0269 8.52637C64.7176 8.37988 64.3351 8.30664 63.8794 8.30664C63.3748 8.30664 62.9435 8.40023 62.5854 8.5874C62.2355 8.77458 61.9548 9.03499 61.7432 9.36865C61.5316 9.69417 61.377 10.0767 61.2793 10.5161C61.1816 10.9556 61.1328 11.4276 61.1328 11.9321ZM78.2959 19.2441C77.2705 19.2441 76.3509 19.0814 75.5371 18.7559C74.7233 18.4222 74.0316 17.9624 73.4619 17.3765C72.9004 16.7905 72.4691 16.111 72.168 15.3379C71.8669 14.5566 71.7163 13.7266 71.7163 12.8477V12.3594C71.7163 11.3584 71.8587 10.4429 72.1436 9.61279C72.4284 8.78271 72.8353 8.0625 73.3643 7.45215C73.9014 6.8418 74.5524 6.37386 75.3174 6.04834C76.0824 5.71468 76.945 5.54785 77.9053 5.54785C78.8411 5.54785 79.6712 5.70247 80.3955 6.01172C81.1198 6.32096 81.7261 6.76042 82.2144 7.33008C82.7108 7.89974 83.0851 8.58333 83.3374 9.38086C83.5897 10.1702 83.7158 11.0492 83.7158 12.0176V13.4824H73.2178V11.1387H80.2612V10.8701C80.2612 10.3818 80.1717 9.94645 79.9927 9.56396C79.8218 9.17334 79.5614 8.8641 79.2114 8.63623C78.8615 8.40837 78.4139 8.29443 77.8687 8.29443C77.4048 8.29443 77.006 8.39616 76.6724 8.59961C76.3387 8.80306 76.0661 9.08789 75.8545 9.4541C75.651 9.82031 75.4964 10.2516 75.3906 10.748C75.293 11.2363 75.2441 11.7734 75.2441 12.3594V12.8477C75.2441 13.3766 75.3174 13.8649 75.4639 14.3125C75.6185 14.7601 75.8341 15.1466 76.1108 15.4722C76.3957 15.7977 76.7375 16.05 77.1362 16.229C77.5431 16.408 78.0029 16.4976 78.5156 16.4976C79.1504 16.4976 79.7404 16.3755 80.2856 16.1313C80.839 15.8791 81.3151 15.5007 81.7139 14.9961L83.4229 16.8516C83.1462 17.2503 82.7677 17.6328 82.2876 17.999C81.8156 18.3652 81.2459 18.6663 80.5786 18.9023C79.9113 19.1302 79.1504 19.2441 78.2959 19.2441ZM89.2334 8.67285V19H85.7178V5.79199H89.0259L89.2334 8.67285ZM93.2129 5.70654L93.1519 8.96582C92.981 8.94141 92.7734 8.92106 92.5293 8.90479C92.2933 8.88037 92.0776 8.86816 91.8823 8.86816C91.3859 8.86816 90.9546 8.93327 90.5884 9.06348C90.2303 9.18555 89.9292 9.36865 89.6851 9.61279C89.4491 9.85693 89.27 10.154 89.1479 10.5039C89.034 10.8538 88.9689 11.2526 88.9526 11.7002L88.2446 11.4805C88.2446 10.626 88.3301 9.84066 88.501 9.12451C88.6719 8.40023 88.9201 7.76953 89.2456 7.23242C89.5793 6.69531 89.9862 6.28027 90.4663 5.9873C90.9465 5.69434 91.4958 5.54785 92.1143 5.54785C92.3096 5.54785 92.509 5.56413 92.7124 5.59668C92.9159 5.62109 93.0827 5.65771 93.2129 5.70654ZM103.442 16.3267H103.674C104.651 16.3267 105.489 16.2087 106.189 15.9727C106.897 15.7285 107.479 15.3786 107.935 14.9229C108.39 14.4671 108.728 13.9097 108.948 13.2505C109.167 12.5832 109.277 11.8263 109.277 10.98V7.61084C109.277 6.96794 109.212 6.40234 109.082 5.91406C108.96 5.42578 108.781 5.02295 108.545 4.70557C108.317 4.38005 108.049 4.1359 107.739 3.97314C107.438 3.81038 107.104 3.729 106.738 3.729C106.348 3.729 106.002 3.82666 105.701 4.02197C105.4 4.20915 105.143 4.46549 104.932 4.79102C104.728 5.11654 104.569 5.49089 104.456 5.91406C104.35 6.3291 104.297 6.76449 104.297 7.22021C104.297 7.67594 104.35 8.11133 104.456 8.52637C104.561 8.93327 104.72 9.29541 104.932 9.61279C105.143 9.92204 105.408 10.1702 105.725 10.3574C106.042 10.5365 106.417 10.626 106.848 10.626C107.263 10.626 107.633 10.5487 107.959 10.394C108.293 10.2313 108.573 10.0197 108.801 9.75928C109.037 9.49886 109.216 9.20996 109.338 8.89258C109.469 8.5752 109.534 8.25374 109.534 7.92822L110.693 8.56299C110.693 9.13265 110.571 9.69417 110.327 10.2476C110.083 10.8009 109.741 11.3055 109.302 11.7612C108.87 12.2088 108.37 12.5669 107.8 12.8354C107.231 13.104 106.62 13.2383 105.969 13.2383C105.139 13.2383 104.403 13.0877 103.76 12.7866C103.117 12.4774 102.572 12.0542 102.124 11.5171C101.685 10.9718 101.351 10.3371 101.123 9.61279C100.895 8.88851 100.781 8.10319 100.781 7.25684C100.781 6.39421 100.92 5.58447 101.196 4.82764C101.481 4.0708 101.884 3.40348 102.405 2.82568C102.934 2.24788 103.564 1.79622 104.297 1.4707C105.037 1.13704 105.859 0.970215 106.763 0.970215C107.666 0.970215 108.488 1.14518 109.229 1.49512C109.969 1.84505 110.604 2.34147 111.133 2.98438C111.662 3.61914 112.069 4.38005 112.354 5.26709C112.646 6.15413 112.793 7.13883 112.793 8.22119V9.44189C112.793 10.5975 112.667 11.6717 112.415 12.6646C112.17 13.6574 111.8 14.5566 111.304 15.3623C110.815 16.1598 110.205 16.8434 109.473 17.4131C108.748 17.9827 107.906 18.4181 106.946 18.7192C105.986 19.0203 104.911 19.1709 103.723 19.1709H103.442V16.3267ZM117.798 16.3267H118.03C119.006 16.3267 119.845 16.2087 120.544 15.9727C121.252 15.7285 121.834 15.3786 122.29 14.9229C122.746 14.4671 123.083 13.9097 123.303 13.2505C123.523 12.5832 123.633 11.8263 123.633 10.98V7.61084C123.633 6.96794 123.568 6.40234 123.438 5.91406C123.315 5.42578 123.136 5.02295 122.9 4.70557C122.673 4.38005 122.404 4.1359 122.095 3.97314C121.794 3.81038 121.46 3.729 121.094 3.729C120.703 3.729 120.357 3.82666 120.056 4.02197C119.755 4.20915 119.499 4.46549 119.287 4.79102C119.084 5.11654 118.925 5.49089 118.811 5.91406C118.705 6.3291 118.652 6.76449 118.652 7.22021C118.652 7.67594 118.705 8.11133 118.811 8.52637C118.917 8.93327 119.076 9.29541 119.287 9.61279C119.499 9.92204 119.763 10.1702 120.081 10.3574C120.398 10.5365 120.772 10.626 121.204 10.626C121.619 10.626 121.989 10.5487 122.314 10.394C122.648 10.2313 122.929 10.0197 123.157 9.75928C123.393 9.49886 123.572 9.20996 123.694 8.89258C123.824 8.5752 123.889 8.25374 123.889 7.92822L125.049 8.56299C125.049 9.13265 124.927 9.69417 124.683 10.2476C124.438 10.8009 124.097 11.3055 123.657 11.7612C123.226 12.2088 122.725 12.5669 122.156 12.8354C121.586 13.104 120.976 13.2383 120.325 13.2383C119.495 13.2383 118.758 13.0877 118.115 12.7866C117.472 12.4774 116.927 12.0542 116.479 11.5171C116.04 10.9718 115.706 10.3371 115.479 9.61279C115.251 8.88851 115.137 8.10319 115.137 7.25684C115.137 6.39421 115.275 5.58447 115.552 4.82764C115.837 4.0708 116.239 3.40348 116.76 2.82568C117.289 2.24788 117.92 1.79622 118.652 1.4707C119.393 1.13704 120.215 0.970215 121.118 0.970215C122.021 0.970215 122.843 1.14518 123.584 1.49512C124.325 1.84505 124.959 2.34147 125.488 2.98438C126.017 3.61914 126.424 4.38005 126.709 5.26709C127.002 6.15413 127.148 7.13883 127.148 8.22119V9.44189C127.148 10.5975 127.022 11.6717 126.77 12.6646C126.526 13.6574 126.156 14.5566 125.659 15.3623C125.171 16.1598 124.561 16.8434 123.828 17.4131C123.104 17.9827 122.262 18.4181 121.301 18.7192C120.341 19.0203 119.267 19.1709 118.079 19.1709H117.798V16.3267Z" fill="white"/>
</svg>
